<mxfile host="app.diagrams.net" modified="2021-12-09T18:08:46.510Z" agent="5.0 (X11; Linux x86_64) AppleWebKit/537.36 (KHTML, like Gecko) Chrome/96.0.4664.93 Safari/537.36" etag="tHuRN50yyJbsYCuRkMs1" version="15.9.1" type="github">
  <diagram id="C5RBs43oDa-KdzZeNtuy" name="Page-1">
    <mxGraphModel dx="2062" dy="1121" grid="1" gridSize="10" guides="1" tooltips="1" connect="1" arrows="1" fold="1" page="1" pageScale="1" pageWidth="1169" pageHeight="827" math="0" shadow="0">
      <root>
        <mxCell id="WIyWlLk6GJQsqaUBKTNV-0" />
        <mxCell id="WIyWlLk6GJQsqaUBKTNV-1" parent="WIyWlLk6GJQsqaUBKTNV-0" />
        <mxCell id="uNZMD-4TB1eQHiRyNtz--13" style="edgeStyle=orthogonalEdgeStyle;rounded=0;orthogonalLoop=1;jettySize=auto;html=1;exitX=0;exitY=0.5;exitDx=0;exitDy=0;entryX=1;entryY=0.25;entryDx=0;entryDy=0;exitPerimeter=0;" parent="WIyWlLk6GJQsqaUBKTNV-1" source="uNZMD-4TB1eQHiRyNtz--9" target="uNZMD-4TB1eQHiRyNtz--2" edge="1">
          <mxGeometry relative="1" as="geometry" />
        </mxCell>
        <mxCell id="SF7gYtSP60bekAl-iXzv-11" value="String" style="edgeLabel;html=1;align=center;verticalAlign=middle;resizable=0;points=[];" vertex="1" connectable="0" parent="uNZMD-4TB1eQHiRyNtz--13">
          <mxGeometry x="-0.2063" y="2" relative="1" as="geometry">
            <mxPoint x="-3" y="-16" as="offset" />
          </mxGeometry>
        </mxCell>
        <mxCell id="SF7gYtSP60bekAl-iXzv-14" style="edgeStyle=orthogonalEdgeStyle;rounded=0;orthogonalLoop=1;jettySize=auto;html=1;dashed=1;" edge="1" parent="WIyWlLk6GJQsqaUBKTNV-1" source="uNZMD-4TB1eQHiRyNtz--2" target="uNZMD-4TB1eQHiRyNtz--3">
          <mxGeometry relative="1" as="geometry" />
        </mxCell>
        <mxCell id="uNZMD-4TB1eQHiRyNtz--2" value="&lt;p style=&quot;margin: 0px ; margin-top: 4px ; text-align: center&quot;&gt;&lt;b&gt;SmevConverterServiceImpl&lt;/b&gt;&lt;br&gt;&lt;/p&gt;&lt;hr size=&quot;1&quot;&gt;&lt;p style=&quot;margin: 0px ; margin-left: 4px&quot;&gt;&lt;span&gt;-&amp;nbsp;smevClient:&amp;nbsp;SmevClient&lt;/span&gt;&lt;br&gt;&lt;/p&gt;&lt;p style=&quot;margin: 0px ; margin-left: 4px&quot;&gt;- draftConverterClient: DraftConverterClient&lt;/p&gt;&lt;hr size=&quot;1&quot;&gt;&lt;p style=&quot;margin: 0px ; margin-left: 4px&quot;&gt;+ get(SmevConverterRequestDto): String&lt;/p&gt;" style="verticalAlign=top;align=left;overflow=fill;fontSize=12;fontFamily=Helvetica;html=1;" parent="WIyWlLk6GJQsqaUBKTNV-1" vertex="1">
          <mxGeometry x="20" y="470" width="240" height="115" as="geometry" />
        </mxCell>
        <mxCell id="uNZMD-4TB1eQHiRyNtz--3" value="«interface»&lt;br&gt;&lt;b&gt;SmevConverterService&lt;/b&gt;" style="html=1;" parent="WIyWlLk6GJQsqaUBKTNV-1" vertex="1">
          <mxGeometry x="200" y="300" width="140" height="50" as="geometry" />
        </mxCell>
        <mxCell id="uNZMD-4TB1eQHiRyNtz--4" value="Draft converter" style="shape=module;align=left;spacingLeft=20;align=center;verticalAlign=top;" parent="WIyWlLk6GJQsqaUBKTNV-1" vertex="1">
          <mxGeometry x="640" y="570" width="170" height="50" as="geometry" />
        </mxCell>
        <mxCell id="uNZMD-4TB1eQHiRyNtz--14" style="edgeStyle=orthogonalEdgeStyle;rounded=0;orthogonalLoop=1;jettySize=auto;html=1;exitX=1;exitY=0.5;exitDx=0;exitDy=0;exitPerimeter=0;" parent="WIyWlLk6GJQsqaUBKTNV-1" source="uNZMD-4TB1eQHiRyNtz--9" target="uNZMD-4TB1eQHiRyNtz--4" edge="1">
          <mxGeometry relative="1" as="geometry" />
        </mxCell>
        <mxCell id="SF7gYtSP60bekAl-iXzv-10" value="XmlCustomConvertRequest" style="edgeLabel;html=1;align=center;verticalAlign=middle;resizable=0;points=[];" vertex="1" connectable="0" parent="uNZMD-4TB1eQHiRyNtz--14">
          <mxGeometry x="-0.2264" y="-2" relative="1" as="geometry">
            <mxPoint x="12" y="-12" as="offset" />
          </mxGeometry>
        </mxCell>
        <mxCell id="uNZMD-4TB1eQHiRyNtz--9" value="REST API" style="shape=providedRequiredInterface;html=1;verticalLabelPosition=bottom;sketch=0;" parent="WIyWlLk6GJQsqaUBKTNV-1" vertex="1">
          <mxGeometry x="450" y="585" width="20" height="20" as="geometry" />
        </mxCell>
        <mxCell id="SF7gYtSP60bekAl-iXzv-6" style="edgeStyle=orthogonalEdgeStyle;rounded=0;orthogonalLoop=1;jettySize=auto;html=1;entryX=0.5;entryY=1;entryDx=0;entryDy=0;dashed=1;" edge="1" parent="WIyWlLk6GJQsqaUBKTNV-1" source="SF7gYtSP60bekAl-iXzv-0" target="SF7gYtSP60bekAl-iXzv-5">
          <mxGeometry relative="1" as="geometry">
            <Array as="points">
              <mxPoint x="135" y="830" />
            </Array>
          </mxGeometry>
        </mxCell>
        <mxCell id="SF7gYtSP60bekAl-iXzv-0" value="&lt;p style=&quot;margin: 0px ; margin-top: 4px ; text-align: center&quot;&gt;&lt;b&gt;SmevClientImpl&lt;/b&gt;&lt;br&gt;&lt;/p&gt;&lt;hr size=&quot;1&quot;&gt;&lt;p style=&quot;margin: 0px ; margin-left: 4px&quot;&gt;&lt;span&gt;-&amp;nbsp;restTemplate:&amp;nbsp;RestTemplate&lt;/span&gt;&lt;br&gt;&lt;/p&gt;&lt;p style=&quot;margin: 0px ; margin-left: 4px&quot;&gt;- properties: SmevClientProperties&lt;/p&gt;&lt;hr size=&quot;1&quot;&gt;&lt;p style=&quot;margin: 0px ; margin-left: 4px&quot;&gt;+ get(String): SmevServiceResponseDto&lt;/p&gt;" style="verticalAlign=top;align=left;overflow=fill;fontSize=12;fontFamily=Helvetica;html=1;" vertex="1" parent="WIyWlLk6GJQsqaUBKTNV-1">
          <mxGeometry x="174" y="850" width="240" height="100" as="geometry" />
        </mxCell>
        <mxCell id="SF7gYtSP60bekAl-iXzv-1" value="Барбарбок" style="shape=module;align=left;spacingLeft=20;align=center;verticalAlign=top;flipH=1;" vertex="1" parent="WIyWlLk6GJQsqaUBKTNV-1">
          <mxGeometry x="680" y="835" width="170" height="50" as="geometry" />
        </mxCell>
        <mxCell id="SF7gYtSP60bekAl-iXzv-2" style="edgeStyle=orthogonalEdgeStyle;rounded=0;orthogonalLoop=1;jettySize=auto;html=1;exitX=0;exitY=0.5;exitDx=0;exitDy=0;exitPerimeter=0;" edge="1" parent="WIyWlLk6GJQsqaUBKTNV-1" source="SF7gYtSP60bekAl-iXzv-4" target="SF7gYtSP60bekAl-iXzv-0">
          <mxGeometry relative="1" as="geometry">
            <mxPoint x="360" y="760" as="targetPoint" />
            <mxPoint x="430" y="740" as="sourcePoint" />
            <Array as="points">
              <mxPoint x="570" y="860" />
            </Array>
          </mxGeometry>
        </mxCell>
        <mxCell id="SF7gYtSP60bekAl-iXzv-13" value="SmevServiceResponseDto" style="edgeLabel;html=1;align=center;verticalAlign=middle;resizable=0;points=[];" vertex="1" connectable="0" parent="SF7gYtSP60bekAl-iXzv-2">
          <mxGeometry x="-0.1867" relative="1" as="geometry">
            <mxPoint x="-1" y="13" as="offset" />
          </mxGeometry>
        </mxCell>
        <mxCell id="SF7gYtSP60bekAl-iXzv-3" style="edgeStyle=orthogonalEdgeStyle;rounded=0;orthogonalLoop=1;jettySize=auto;html=1;exitX=1;exitY=0.5;exitDx=0;exitDy=0;exitPerimeter=0;" edge="1" parent="WIyWlLk6GJQsqaUBKTNV-1" source="SF7gYtSP60bekAl-iXzv-4" target="SF7gYtSP60bekAl-iXzv-1">
          <mxGeometry relative="1" as="geometry">
            <mxPoint x="650" y="858" as="targetPoint" />
            <mxPoint x="470" y="730" as="sourcePoint" />
            <Array as="points">
              <mxPoint x="590" y="858" />
              <mxPoint x="620" y="858" />
              <mxPoint x="620" y="855" />
            </Array>
          </mxGeometry>
        </mxCell>
        <mxCell id="SF7gYtSP60bekAl-iXzv-12" value="SmevServiceRequestDto" style="edgeLabel;html=1;align=center;verticalAlign=middle;resizable=0;points=[];" vertex="1" connectable="0" parent="SF7gYtSP60bekAl-iXzv-3">
          <mxGeometry x="-0.0526" y="-1" relative="1" as="geometry">
            <mxPoint x="20" y="-36" as="offset" />
          </mxGeometry>
        </mxCell>
        <mxCell id="SF7gYtSP60bekAl-iXzv-4" value="REST API" style="shape=providedRequiredInterface;html=1;verticalLabelPosition=bottom;sketch=0;" vertex="1" parent="WIyWlLk6GJQsqaUBKTNV-1">
          <mxGeometry x="570" y="850" width="20" height="20" as="geometry" />
        </mxCell>
        <mxCell id="SF7gYtSP60bekAl-iXzv-5" value="«interface»&lt;br&gt;&lt;b&gt;SmevClient&lt;/b&gt;" style="html=1;" vertex="1" parent="WIyWlLk6GJQsqaUBKTNV-1">
          <mxGeometry x="80" y="710" width="110" height="50" as="geometry" />
        </mxCell>
        <mxCell id="SF7gYtSP60bekAl-iXzv-8" style="edgeStyle=orthogonalEdgeStyle;rounded=0;orthogonalLoop=1;jettySize=auto;html=1;entryX=0.5;entryY=1;entryDx=0;entryDy=0;dashed=1;" edge="1" parent="WIyWlLk6GJQsqaUBKTNV-1" source="SF7gYtSP60bekAl-iXzv-7" target="SF7gYtSP60bekAl-iXzv-5">
          <mxGeometry relative="1" as="geometry">
            <Array as="points">
              <mxPoint x="65" y="830" />
              <mxPoint x="135" y="830" />
            </Array>
          </mxGeometry>
        </mxCell>
        <mxCell id="SF7gYtSP60bekAl-iXzv-7" value="&lt;p style=&quot;margin: 0px ; margin-top: 4px ; text-align: center&quot;&gt;&lt;b&gt;SmevClientStub&lt;/b&gt;&lt;br&gt;&lt;/p&gt;&lt;hr size=&quot;1&quot;&gt;&lt;p style=&quot;margin: 0px ; margin-left: 4px&quot;&gt;&lt;br&gt;&lt;/p&gt;&lt;hr size=&quot;1&quot;&gt;&lt;p style=&quot;margin: 0px ; margin-left: 4px&quot;&gt;+ get(String): null&lt;/p&gt;" style="verticalAlign=top;align=left;overflow=fill;fontSize=12;fontFamily=Helvetica;html=1;" vertex="1" parent="WIyWlLk6GJQsqaUBKTNV-1">
          <mxGeometry x="10" y="850" width="110" height="80" as="geometry" />
        </mxCell>
        <mxCell id="SF7gYtSP60bekAl-iXzv-15" value="&lt;p style=&quot;margin: 0px ; margin-top: 4px ; text-align: center&quot;&gt;&lt;b&gt;DraftConverterClient&lt;/b&gt;&lt;br&gt;&lt;/p&gt;&lt;hr size=&quot;1&quot;&gt;&lt;p style=&quot;margin: 0px ; margin-left: 4px&quot;&gt;&lt;span&gt;-&amp;nbsp;smevClient:&amp;nbsp;SmevClient&lt;/span&gt;&lt;br&gt;&lt;/p&gt;&lt;p style=&quot;margin: 0px ; margin-left: 4px&quot;&gt;- draftConverterClient: DraftConverterClient&lt;/p&gt;&lt;hr size=&quot;1&quot;&gt;&lt;p style=&quot;margin: 0px ; margin-left: 4px&quot;&gt;+ convertXmlCustom(XmlCustomConvertRequest): String&lt;/p&gt;" style="verticalAlign=top;align=left;overflow=fill;fontSize=12;fontFamily=Helvetica;html=1;" vertex="1" parent="WIyWlLk6GJQsqaUBKTNV-1">
          <mxGeometry x="390" y="380" width="320" height="115" as="geometry" />
        </mxCell>
        <mxCell id="SF7gYtSP60bekAl-iXzv-20" value="&lt;p style=&quot;margin: 0px ; margin-top: 6px ; text-align: center&quot;&gt;&lt;b&gt;SmevServiceRequestDto&lt;/b&gt;&lt;br&gt;&lt;/p&gt;&lt;hr&gt;&lt;p style=&quot;margin: 0px ; margin-left: 8px&quot;&gt;+ data: String&lt;br&gt;+ smevVersion: String&lt;/p&gt;&lt;p style=&quot;margin: 0px ; margin-left: 8px&quot;&gt;+&amp;nbsp;timeout:&amp;nbsp;Integer&lt;/p&gt;&lt;p style=&quot;margin: 0px ; margin-left: 8px&quot;&gt;+ ttl: Integer&lt;/p&gt;" style="align=left;overflow=fill;html=1;dropTarget=0;" vertex="1" parent="WIyWlLk6GJQsqaUBKTNV-1">
          <mxGeometry x="420" y="685" width="200" height="105" as="geometry" />
        </mxCell>
        <mxCell id="SF7gYtSP60bekAl-iXzv-21" value="" style="shape=component;jettyWidth=8;jettyHeight=4;" vertex="1" parent="SF7gYtSP60bekAl-iXzv-20">
          <mxGeometry x="1" width="20" height="20" relative="1" as="geometry">
            <mxPoint x="-24" y="4" as="offset" />
          </mxGeometry>
        </mxCell>
        <mxCell id="SF7gYtSP60bekAl-iXzv-22" value="&lt;p style=&quot;margin: 0px ; margin-top: 6px ; text-align: center&quot;&gt;&lt;b&gt;SmevServiceResponseDto&lt;/b&gt;&lt;br&gt;&lt;/p&gt;&lt;hr&gt;&lt;p style=&quot;margin: 0px ; margin-left: 8px&quot;&gt;+ id: String&lt;br&gt;+ ttl: Integer&lt;/p&gt;&lt;p style=&quot;margin: 0px ; margin-left: 8px&quot;&gt;+&amp;nbsp;status: String&lt;/p&gt;&lt;p style=&quot;margin: 0px ; margin-left: 8px&quot;&gt;+ data: String&lt;/p&gt;" style="align=left;overflow=fill;html=1;dropTarget=0;" vertex="1" parent="WIyWlLk6GJQsqaUBKTNV-1">
          <mxGeometry x="680" y="670" width="210" height="105" as="geometry" />
        </mxCell>
        <mxCell id="SF7gYtSP60bekAl-iXzv-23" value="" style="shape=component;jettyWidth=8;jettyHeight=4;" vertex="1" parent="SF7gYtSP60bekAl-iXzv-22">
          <mxGeometry x="1" width="20" height="20" relative="1" as="geometry">
            <mxPoint x="-24" y="4" as="offset" />
          </mxGeometry>
        </mxCell>
        <mxCell id="SF7gYtSP60bekAl-iXzv-24" value="&lt;p style=&quot;margin: 0px ; margin-top: 6px ; text-align: center&quot;&gt;&lt;b&gt;SmevConverterRequestDto&lt;/b&gt;&lt;br&gt;&lt;/p&gt;&lt;hr&gt;&lt;p style=&quot;margin: 0px ; margin-left: 8px&quot;&gt;+ data: String&lt;br&gt;+ serviceId: String&lt;/p&gt;&lt;p style=&quot;margin: 0px ; margin-left: 8px&quot;&gt;+&amp;nbsp;templateName:&amp;nbsp;String&lt;/p&gt;&lt;p style=&quot;margin: 0px ; margin-left: 8px&quot;&gt;+ extData: String&lt;/p&gt;" style="align=left;overflow=fill;html=1;dropTarget=0;" vertex="1" parent="WIyWlLk6GJQsqaUBKTNV-1">
          <mxGeometry x="750" y="350" width="210" height="105" as="geometry" />
        </mxCell>
        <mxCell id="SF7gYtSP60bekAl-iXzv-25" value="" style="shape=component;jettyWidth=8;jettyHeight=4;" vertex="1" parent="SF7gYtSP60bekAl-iXzv-24">
          <mxGeometry x="1" width="20" height="20" relative="1" as="geometry">
            <mxPoint x="-24" y="4" as="offset" />
          </mxGeometry>
        </mxCell>
        <mxCell id="SF7gYtSP60bekAl-iXzv-26" value="String" style="html=1;verticalAlign=bottom;endArrow=block;rounded=0;dashed=1;exitX=0.25;exitY=1;exitDx=0;exitDy=0;entryX=0.5;entryY=0;entryDx=0;entryDy=0;" edge="1" parent="WIyWlLk6GJQsqaUBKTNV-1" source="uNZMD-4TB1eQHiRyNtz--2" target="SF7gYtSP60bekAl-iXzv-5">
          <mxGeometry width="80" relative="1" as="geometry">
            <mxPoint x="20" y="650" as="sourcePoint" />
            <mxPoint x="100" y="650" as="targetPoint" />
          </mxGeometry>
        </mxCell>
        <mxCell id="SF7gYtSP60bekAl-iXzv-27" value="SmevServiceResponseDto" style="html=1;verticalAlign=bottom;endArrow=open;dashed=1;endSize=8;rounded=0;entryX=0.75;entryY=1;entryDx=0;entryDy=0;exitX=0.5;exitY=0;exitDx=0;exitDy=0;" edge="1" parent="WIyWlLk6GJQsqaUBKTNV-1" source="SF7gYtSP60bekAl-iXzv-5" target="uNZMD-4TB1eQHiRyNtz--2">
          <mxGeometry x="0.3678" y="-12" relative="1" as="geometry">
            <mxPoint x="330" y="680" as="sourcePoint" />
            <mxPoint x="250" y="680" as="targetPoint" />
            <mxPoint as="offset" />
          </mxGeometry>
        </mxCell>
      </root>
    </mxGraphModel>
  </diagram>
</mxfile>
